<svg width="36" height="36" viewBox="0 0 36 36" fill="none" xmlns="http://www.w3.org/2000/svg">
<path d="M27.73 35.44C27.3937 35.439 27.0584 35.4022 26.73 35.33C20.4766 34.0364 14.7156 31.0034 10.11 26.58C5.60265 22.1469 2.47657 16.5026 1.10998 10.33C0.948842 9.56067 0.988391 8.76286 1.22482 8.01328C1.46126 7.2637 1.88662 6.58757 2.45998 6.04996L6.45998 2.19996C6.66428 2.00675 6.90704 1.85879 7.17239 1.76574C7.43775 1.67269 7.71975 1.63665 7.99998 1.65996C8.29054 1.69027 8.57094 1.78387 8.82145 1.93418C9.07196 2.08448 9.28649 2.28784 9.44998 2.52996L14.45 9.91996C14.6375 10.2067 14.728 10.5461 14.7082 10.8881C14.6884 11.2301 14.5593 11.5568 14.34 11.82L11.83 14.82C12.8296 17.0324 14.2453 19.032 16 20.71C17.7433 22.4488 19.8038 23.8372 22.07 24.8L25.18 22.33C25.4412 22.1235 25.759 22.0015 26.0913 21.9801C26.4235 21.9586 26.7544 22.0388 27.04 22.21L34.59 27.09C34.8491 27.2447 35.0698 27.456 35.2356 27.7081C35.4014 27.9602 35.5081 28.2466 35.5475 28.5458C35.587 28.8449 35.5582 29.1492 35.4634 29.4356C35.3685 29.7221 35.2101 29.9834 35 30.2L31.1 34.06C30.657 34.5008 30.1311 34.8497 29.5528 35.0865C28.9744 35.3233 28.3549 35.4435 27.73 35.44ZM7.83998 3.63996L3.83998 7.48996C3.51743 7.79051 3.27867 8.16984 3.14716 8.59065C3.01566 9.01145 2.99596 9.45923 3.08998 9.88996C4.3607 15.6821 7.2817 20.9823 11.5 25.15C15.8342 29.3115 21.2556 32.1644 27.14 33.38C27.5854 33.4731 28.0469 33.4542 28.4832 33.3251C28.9196 33.1959 29.317 32.9605 29.64 32.64L33.54 28.78L26.25 24.07L22.91 26.73C22.7821 26.8312 22.6314 26.8996 22.4711 26.9292C22.3107 26.9588 22.1456 26.9488 21.99 26.9C19.2167 25.8782 16.7034 24.2562 14.63 22.15C12.4853 20.1472 10.8206 17.686 9.75998 14.95C9.71511 14.7843 9.71362 14.6099 9.75565 14.4436C9.79768 14.2772 9.88182 14.1244 9.99998 14L12.7 10.77L7.83998 3.63996Z" fill="#E93C30"/>
</svg>
